<svg width="155" height="183" viewBox="0 0 155 183" fill="none" xmlns="http://www.w3.org/2000/svg">
<path d="M48.1951 73.904C38.7311 83.368 38.7748 98.8173 48.1951 108.238M48.1951 108.238C38.7141 98.7566 38.7141 83.385 48.1951 73.904L132.468 -10.3693C137.252 -15.1525 143.534 -17.5225 149.803 -17.4794C155.96 -17.4371 162.104 -15.067 166.802 -10.3693L251.075 73.904C260.556 83.385 260.556 98.7566 251.075 108.238L166.802 192.511C162.104 197.209 155.96 199.579 149.803 199.621M48.1951 73.904L129.22 -7.12085M48.1951 108.238L132.468 192.511C137.252 197.294 143.534 199.664 149.803 199.621M48.1951 108.238L129.242 189.284M149.803 -17.4794L109.525 -17.4482C103.081 -17.6324 96.5779 -15.2654 91.6599 -10.3474L7.38659 73.9258C2.42668 78.8858 0.0615176 85.4578 0.291116 91.9553M41.1062 91.9553H0.291116M0.291116 91.9553C0.500398 97.8778 2.86556 103.738 7.38659 108.259L91.6599 192.533C96.2972 197.17 102.344 199.539 108.421 199.64L149.803 199.621" stroke="white" stroke-opacity="0.15" stroke-width="0.551761"/>
</svg>
