<svg width="195" height="198" viewBox="0 0 195 198" fill="none" xmlns="http://www.w3.org/2000/svg">
<path d="M52.3859 80.3304C42.099 90.6173 42.1465 107.41 52.3859 117.65M205.743 -17.818L162.829 -18.9994C156.015 -19.0462 149.186 -16.4701 143.987 -11.271L52.3859 80.3304M140.456 -7.74009L52.3859 80.3304C42.0805 90.6357 42.0805 107.344 52.3859 117.65M52.3859 117.65L143.987 209.251C149.186 214.45 156.015 217.026 162.829 216.979M52.3859 117.65L140.48 205.744M205.743 218.161L162.829 216.979L117.849 217C111.243 216.89 104.671 214.315 99.6302 209.275L8.02884 117.673C3.11467 112.759 0.543847 106.389 0.316367 99.9514C0.0668033 92.889 2.63763 85.7453 8.02884 80.3541L99.6302 -11.2473C104.976 -16.5929 112.044 -19.1656 119.048 -18.9654L162.829 -18.9994M0.316367 99.9514H44.6806H87.5717M205.743 -17.818C198.929 -17.8649 192.1 -15.2887 186.901 -10.0896L184.552 -7.74009L95.2998 81.5118C90.2031 86.6085 87.627 93.2715 87.5717 99.9514M205.743 -17.818C212.436 -17.772 219.114 -15.1959 224.22 -10.0896L315.822 81.5118C326.127 91.8171 326.127 108.526 315.822 118.831L224.22 210.432C219.114 215.539 212.436 218.115 205.743 218.161M205.743 218.161C198.929 218.208 192.1 215.631 186.901 210.432L183.47 207.001L95.2998 118.831C90.0912 113.622 87.5151 106.778 87.5717 99.9514M135.278 81.1351L224.53 -8.11678L226.879 -10.4663C232.078 -15.6654 238.907 -18.2416 245.721 -18.1947C252.414 -18.1487 259.092 -15.5725 264.198 -10.4663L355.8 81.1351C366.105 91.4405 366.105 108.149 355.8 118.454L264.198 210.056C259.092 215.162 252.414 217.738 245.721 217.784C238.907 217.831 232.078 215.255 226.879 210.056L223.448 206.624L135.278 118.454C130.069 113.246 127.493 106.401 127.55 99.5747C127.605 92.8948 130.181 86.2319 135.278 81.1351Z" stroke="white" stroke-opacity="0.15" stroke-width="0.59974"/>
</svg>
