<svg width="169" height="198" viewBox="0 0 169 198" fill="none" xmlns="http://www.w3.org/2000/svg">
<path d="M52.386 80.3304C42.0991 90.6173 42.1466 107.41 52.386 117.649M184.552 -7.74009L181.306 -11.271C176.2 -16.3772 169.522 -18.9533 162.83 -18.9994C156.015 -19.0462 149.187 -16.4701 143.987 -11.271L52.386 80.3304M140.457 -7.74009L52.386 80.3304C42.0807 90.6358 42.0806 107.344 52.386 117.649M52.386 117.649L143.987 209.251C149.187 214.45 156.015 217.026 162.83 216.979M52.386 117.649L140.48 205.744M162.83 216.979L117.849 217C111.243 216.89 104.671 214.315 99.6303 209.275L8.02896 117.673C3.11479 112.759 0.54397 106.389 0.316489 99.9514C0.0669253 92.8889 2.63775 85.7453 8.02896 80.3541L99.6304 -11.2473C104.976 -16.5929 112.045 -19.1656 119.049 -18.9654L162.83 -18.9994M44.6807 99.9514H0.316489M162.83 216.979C169.522 216.933 176.2 214.357 181.306 209.251L183.47 207.001M184.552 -7.74009L95.2999 81.5118C84.9945 91.8172 84.9945 108.525 95.2999 118.831L183.47 207.001M184.552 -7.74009L186.901 -10.0896C192.1 -15.2887 198.929 -17.8649 205.743 -17.818C212.436 -17.772 219.114 -15.1959 224.22 -10.0896L315.822 81.5118C326.127 91.8172 326.127 108.525 315.822 118.831L224.22 210.432C219.114 215.539 212.436 218.115 205.743 218.161C198.929 218.208 192.1 215.631 186.901 210.432L183.47 207.001" stroke="white" stroke-opacity="0.15" stroke-width="0.59974"/>
</svg>
