<svg width="169" height="198" viewBox="0 0 169 198" fill="none" xmlns="http://www.w3.org/2000/svg">
<path d="M52.3859 80.3304C42.099 90.6173 42.1465 107.41 52.3859 117.649M205.743 -17.818L162.829 -18.9994C156.015 -19.0462 149.186 -16.4701 143.987 -11.271L52.3859 80.3304M140.456 -7.74009L52.3859 80.3304C42.0805 90.6358 42.0805 107.344 52.3859 117.649M52.3859 117.649L143.987 209.251C149.186 214.45 156.015 217.026 162.829 216.979M52.3859 117.649L140.48 205.744M205.743 218.161L162.829 216.979L117.849 217C111.243 216.89 104.671 214.315 99.6302 209.275L8.02884 117.673C3.11467 112.759 0.543847 106.389 0.316367 99.9514C0.0668033 92.8889 2.63763 85.7453 8.02884 80.3541L99.6302 -11.2473C104.976 -16.5929 112.044 -19.1656 119.048 -18.9654L162.829 -18.9994M0.316367 99.9514H44.6806H87.5717M205.743 -17.818C198.929 -17.8649 192.1 -15.2887 186.901 -10.0896L184.552 -7.74009L95.2998 81.5118C90.2031 86.6085 87.627 93.2715 87.5717 99.9514M205.743 -17.818C212.436 -17.772 219.114 -15.1959 224.22 -10.0896L315.822 81.5118C326.127 91.8172 326.127 108.525 315.822 118.831L224.22 210.432C219.114 215.539 212.436 218.115 205.743 218.161M205.743 218.161C198.929 218.208 192.1 215.631 186.901 210.432L183.47 207.001L95.2998 118.831C90.0912 113.622 87.5151 106.778 87.5717 99.9514" stroke="white" stroke-opacity="0.15" stroke-width="0.59974"/>
</svg>
