<svg width="169" height="198" viewBox="0 0 169 198" fill="none" xmlns="http://www.w3.org/2000/svg">
<path d="M52.4086 117.709L144.05 209.35C154.36 219.66 171.075 219.66 181.385 209.35L273.026 117.709C283.336 107.399 283.336 90.6833 273.026 80.3734L181.385 -11.2676C171.075 -21.5775 154.36 -21.5775 144.05 -11.2676L52.4086 80.3734C42.1173 90.6648 42.1648 107.465 52.4086 117.709ZM52.4086 80.3734C42.0988 90.6833 42.0988 107.399 52.4086 117.709M52.4086 80.3734L140.517 -7.73521L137.009 -11.2439C126.699 -21.5537 109.983 -21.5537 99.6734 -11.2439L8.03237 80.3971C-2.27747 90.707 -2.27747 107.423 8.03237 117.732L99.6734 209.373C109.983 219.683 126.699 219.683 137.009 209.373L140.541 205.841L52.4086 117.709" stroke="white" stroke-opacity="0.15" stroke-width="0.6"/>
</svg>
