<svg width="728" height="476" viewBox="0 0 728 476" fill="none" xmlns="http://www.w3.org/2000/svg">
<path d="M104.772 199.261C84.198 219.834 84.293 253.42 104.772 273.899M411.487 2.96383L325.659 0.601109C312.031 0.507384 298.373 5.65963 287.975 16.0579L104.772 199.261M280.913 23.1197L104.772 199.261C84.1611 219.871 84.1611 253.288 104.772 273.899M104.772 273.899L287.975 457.102C298.373 467.5 312.031 472.652 325.659 472.559M104.772 273.899L280.96 450.088M411.487 474.921L325.659 472.559L235.698 472.6C222.486 472.381 209.342 467.23 199.26 457.149L16.0577 273.946C6.22934 264.118 1.08769 251.378 0.632734 238.503C0.133607 224.378 5.27526 210.09 16.0577 199.308L199.26 16.1053C209.952 5.41404 224.089 0.2686 238.097 0.668973L325.659 0.601109M0.632734 238.503H89.3612H175.143M491.443 2.21046L411.487 2.96383C397.858 2.8701 384.201 8.02237 373.802 18.4206L369.103 23.1197L190.6 201.623C180.406 211.817 175.254 225.143 175.143 238.503M491.443 474.168L411.487 474.921C397.858 475.015 384.201 469.863 373.802 459.465L366.939 452.601L190.6 276.262C180.182 265.845 175.03 252.156 175.143 238.503M175.143 238.503L255.1 237.749M255.1 237.749C254.987 251.402 260.139 265.091 270.556 275.508L446.895 451.848L453.759 458.711C464.157 469.109 477.815 474.262 491.443 474.168C504.828 474.076 518.184 468.924 528.397 458.711L711.6 275.508C732.21 254.897 732.21 221.481 711.6 200.87L528.397 17.6673C518.184 7.45478 504.828 2.30251 491.443 2.21046C477.815 2.11674 464.157 7.26901 453.759 17.6673L449.06 22.3663L270.556 200.87C260.362 211.064 255.21 224.389 255.1 237.749Z" stroke="#141414" stroke-width="1.19948"/>
<path d="M534.58 297.765C540.44 313.841 546.516 316.597 555.631 316.597V318.894H549.555C533.278 318.894 519.605 317.516 514.18 302.588C501.809 269.058 517.163 224.562 476.58 224.562C467.204 224.562 457.178 236.55 452.62 248.676L451.318 248.262L465.251 204.582L466.553 204.995C463.819 216.156 466.38 218.82 476.797 218.82H482.277C498.337 218.82 512.444 195.567 512.444 184.774C512.444 174.209 505.282 163.186 489.222 163.186L430.6 162.341V156.6L489.222 157.444H497.469C522.861 157.444 535.448 169.157 535.448 184.774C535.448 196.027 518.737 218.82 497.468 222.035C537.401 225.48 522.427 264.005 534.58 297.765Z" fill="white"/>
</svg>
