<svg width="32" height="29" viewBox="0 0 32 29" fill="none" xmlns="http://www.w3.org/2000/svg">
<path d="M3.73333 13.75C3.07435 13.0954 2.55223 12.3162 2.19742 11.4578C1.8426 10.5993 1.66218 9.67888 1.66667 8.75003C1.66667 6.87141 2.41294 5.06974 3.74133 3.74136C5.06971 2.41297 6.87138 1.6667 8.75 1.6667C11.3833 1.6667 13.6833 3.10003 14.9 5.23336H16.7667C17.3852 4.14846 18.2802 3.24684 19.3605 2.62032C20.4408 1.9938 21.6678 1.66476 22.9167 1.6667C24.7953 1.6667 26.597 2.41297 27.9253 3.74136C29.2537 5.06974 30 6.87141 30 8.75003C30 10.7 29.1667 12.5 27.9333 13.75L15.8333 25.8334L3.73333 13.75ZM29.1 14.9334C30.6833 13.3334 31.6667 11.1667 31.6667 8.75003C31.6667 6.42939 30.7448 4.20379 29.1039 2.56285C27.4629 0.921902 25.2373 3.00867e-05 22.9167 3.00867e-05C20 3.00867e-05 17.4167 1.4167 15.8333 3.6167C15.0252 2.49419 13.961 1.58056 12.7291 0.951577C11.4973 0.322594 10.1332 -0.00360718 8.75 3.00867e-05C6.42936 3.00867e-05 4.20376 0.921902 2.56282 2.56285C0.921872 4.20379 0 6.42939 0 8.75003C0 11.1667 0.983333 13.3334 2.56667 14.9334L15.8333 28.2L29.1 14.9334Z" fill="#BA7517"/>
</svg>
