<svg width="12" height="12" viewBox="0 0 12 12" fill="none" xmlns="http://www.w3.org/2000/svg">
<g clip-path="url(#clip0_201_349)">
<path d="M1.5 6.5C1.5 6.23478 1.60536 5.98043 1.79289 5.79289C1.98043 5.60536 2.23478 5.5 2.5 5.5H7.5C7.76522 5.5 8.01957 5.60536 8.20711 5.79289C8.39464 5.98043 8.5 6.23478 8.5 6.5V9.5C8.5 9.76522 8.39464 10.0196 8.20711 10.2071C8.01957 10.3946 7.76522 10.5 7.5 10.5H2.5C2.23478 10.5 1.98043 10.3946 1.79289 10.2071C1.60536 10.0196 1.5 9.76522 1.5 9.5V6.5Z" stroke="white" stroke-width="0.5" stroke-linecap="round" stroke-linejoin="round"/>
<path d="M4.5 8C4.5 8.13261 4.55268 8.25979 4.64645 8.35355C4.74021 8.44732 4.86739 8.5 5 8.5C5.13261 8.5 5.25979 8.44732 5.35355 8.35355C5.44732 8.25979 5.5 8.13261 5.5 8C5.5 7.86739 5.44732 7.74021 5.35355 7.64645C5.25979 7.55268 5.13261 7.5 5 7.5C4.86739 7.5 4.74021 7.55268 4.64645 7.64645C4.55268 7.74021 4.5 7.86739 4.5 8Z" stroke="white" stroke-width="0.5" stroke-linecap="round" stroke-linejoin="round"/>
<path d="M6.5 5.5V3.5C6.5 2.96957 6.71071 2.46086 7.08579 2.08579C7.46086 1.71071 7.96957 1.5 8.5 1.5C9.03043 1.5 9.53914 1.71071 9.91421 2.08579C10.2893 2.46086 10.5 2.96957 10.5 3.5V5.5" stroke="white" stroke-width="0.5" stroke-linecap="round" stroke-linejoin="round"/>
</g>
<defs>
<clipPath id="clip0_201_349">
<rect width="12" height="12" fill="white"/>
</clipPath>
</defs>
</svg>
