<svg width="13" height="13" viewBox="0 0 13 13" fill="none" xmlns="http://www.w3.org/2000/svg">
<path d="M12.1381 2.48001C10.0611 2.57506 8.02863 1.85773 6.47141 0.480011C4.91419 1.85773 2.88176 2.57506 0.80474 2.48001C0.502345 3.50869 0.409818 4.58766 0.532657 5.6528C0.655496 6.71794 0.991194 7.74752 1.5198 8.68036C2.04841 9.6132 2.75915 10.4303 3.60977 11.083C4.46039 11.7357 5.43355 12.2108 6.47141 12.48C7.50927 12.2108 8.48242 11.7357 9.33304 11.083C10.1837 10.4303 10.8944 9.6132 11.423 8.68036C11.9516 7.74752 12.2873 6.71794 12.4102 5.6528C12.533 4.58766 12.4405 3.50869 12.1381 2.48001Z" stroke="#00E5B5" stroke-width="0.96" stroke-linecap="round" stroke-linejoin="round"/>
</svg>
