<svg width="1632" height="468" viewBox="0 0 1632 468" fill="none" xmlns="http://www.w3.org/2000/svg">
<path d="M6.79903 460.126C14.5693 458.831 20.8827 457.05 25.7392 454.784C30.9194 452.518 34.9664 448.794 37.8803 443.614C40.7941 438.434 42.2511 431.311 42.2511 422.246V172.625C42.2511 162.912 40.3085 155.465 36.4233 150.285C32.862 144.781 28.1674 140.896 22.3397 138.629C16.5119 136.363 9.06537 134.582 0 133.287V127.46H137.923V163.883C148.931 149.961 162.205 139.277 177.746 131.83C193.287 124.06 209.798 120.175 227.282 120.175C249.945 120.175 270.018 126.003 287.502 137.658C305.309 148.99 319.069 164.531 328.781 184.28C338.494 204.03 343.351 225.884 343.351 249.842C343.351 274.124 338.332 295.978 328.296 315.404C318.583 334.506 304.823 349.723 287.016 361.055C269.533 372.063 249.459 377.567 226.796 377.567C209.313 377.567 192.801 373.843 177.26 366.397C162.043 358.626 148.931 347.942 137.923 334.344V422.246C137.923 430.988 139.38 437.948 142.294 443.129C145.532 448.309 149.579 452.032 154.435 454.298C159.291 456.889 165.281 458.831 172.404 460.126L180.174 461.583V467.411H0V461.583L6.79903 460.126ZM191.83 346.485C201.543 346.485 210.446 342.6 218.54 334.83C226.634 327.06 232.948 315.89 237.48 301.32C242.337 286.427 244.765 269.268 244.765 249.842C244.765 229.121 242.499 211.314 237.966 196.421C233.433 181.204 227.12 169.711 219.026 161.94C210.932 153.846 201.866 149.799 191.83 149.799C183.088 149.799 174.508 153.846 166.09 161.94C157.996 169.711 151.197 181.204 145.693 196.421C140.513 211.638 137.923 229.283 137.923 249.356C137.923 269.43 140.513 286.751 145.693 301.32C151.197 315.89 157.996 327.06 166.09 334.83C174.508 342.6 183.088 346.485 191.83 346.485Z" fill="white"/>
<path d="M447.29 377.567C430.131 377.567 413.942 375.138 398.726 370.282C383.509 365.426 371.044 357.655 361.331 346.971C351.942 336.287 347.247 322.689 347.247 306.177C347.247 288.046 353.561 270.239 366.187 252.756C378.814 234.949 398.564 219.57 425.436 206.62C452.308 193.345 485.818 184.766 525.964 180.881C524.669 169.873 522.079 161.293 518.194 155.141C514.633 148.99 509.614 144.457 503.139 141.543C496.664 138.306 488.57 136.687 478.857 136.687C465.583 136.687 452.147 139.925 438.548 146.4C424.95 152.551 412 162.426 399.697 176.024C387.718 189.298 377.357 206.458 368.616 227.502H355.503L370.558 143.486C372.825 142.838 374.767 142.191 376.386 141.543C378.005 140.572 380.109 139.763 382.699 139.115C398.24 133.287 415.399 128.755 434.178 125.517C452.956 122.279 470.763 120.661 487.599 120.661C512.852 120.661 535.677 123.736 556.074 129.888C576.471 135.716 592.822 145.59 605.125 159.512C617.751 173.434 624.065 191.888 624.065 214.876V317.832C624.065 320.746 624.227 323.336 624.55 325.603C624.874 335.639 625.845 343.086 627.464 347.942C629.407 352.475 632.159 354.741 635.72 354.741C639.282 354.741 642.681 352.637 645.919 348.428C649.48 343.895 653.203 337.258 657.089 328.517L670.201 336.772C665.992 347.457 661.136 355.713 655.632 361.54C650.451 367.044 643.49 371.091 634.749 373.681C626.007 376.272 614.352 377.567 599.782 377.567C583.594 377.567 569.511 374.815 557.531 369.311C545.876 363.807 537.62 355.713 532.763 345.028C525.317 355.389 514.147 363.483 499.254 369.311C484.361 374.815 467.04 377.567 447.29 377.567ZM480.314 355.713C487.76 356.036 495.207 353.446 502.654 347.942C510.1 342.438 516.252 334.182 521.108 323.174C526.288 311.843 528.878 298.083 528.878 281.895V226.531C528.878 212.933 528.393 202.249 527.421 194.479C509.291 197.392 494.236 204.191 482.256 214.876C470.601 225.236 462.021 238.348 456.517 254.213C451.337 269.754 448.747 286.589 448.747 304.72C448.747 322.203 451.823 335.154 457.974 343.572C464.126 351.666 471.572 355.713 480.314 355.713Z" fill="white"/>
<path d="M652.202 361.055C659.972 360.083 666.285 358.626 671.142 356.684C676.322 354.418 680.531 350.856 683.769 346C687.006 340.82 688.625 333.859 688.625 325.117V172.625C688.625 162.912 686.683 155.465 682.797 150.285C678.912 145.105 673.894 141.705 667.742 140.086C661.591 138.144 654.144 136.687 645.403 135.716V127.46H784.297V325.117C784.297 333.859 785.754 340.82 788.668 346C791.905 350.856 795.953 354.418 800.809 356.684C805.665 358.626 811.817 359.922 819.263 360.569C821.854 360.893 824.444 361.217 827.034 361.54V370.282H645.403V361.54L652.202 361.055ZM772.156 46.8426C767.947 57.2031 760.824 64.4877 750.788 68.6966C741.075 72.9056 731.2 73.3912 721.163 70.1536C714.688 67.8872 709.022 64.4877 704.166 59.955C699.633 55.4223 696.719 50.0802 695.424 43.9288C694.129 37.7773 694.938 31.302 697.852 24.503C700.766 17.704 704.975 12.3619 710.479 8.47669C715.983 4.26779 722.135 1.67769 728.934 0.706393C736.056 -0.588662 743.017 -0.103014 749.816 2.16334C759.529 5.40096 766.652 11.2287 771.185 19.6465C776.041 28.0644 776.365 37.1297 772.156 46.8426Z" fill="white"/>
<path d="M961.296 377.567C935.394 377.567 909.817 374.491 884.564 368.339C859.31 361.864 840.532 352.475 828.229 340.172L815.117 249.842H828.715C838.427 275.419 850.407 296.464 864.652 312.976C878.898 329.488 894.115 341.791 910.303 349.885C926.815 357.655 943.003 361.54 958.867 361.54C969.551 361.54 978.941 360.245 987.035 357.655C995.129 355.065 1001.28 351.342 1005.49 346.485C1010.02 341.629 1012.29 335.963 1012.29 329.488C1012.29 322.041 1009.54 315.728 1004.03 310.548C998.528 305.367 991.244 300.835 982.178 296.95C973.113 292.741 960.81 287.884 945.269 282.38L931.186 277.524C909.17 271.372 891.201 265.221 877.279 259.069C863.681 252.918 852.187 244.824 842.798 234.787C833.409 224.75 828.715 212.124 828.715 196.907C828.715 180.071 834.542 165.987 846.198 154.656C857.853 143 873.232 134.421 892.334 128.917C911.76 123.413 933.128 120.661 956.439 120.661C974.57 120.661 994.319 122.603 1015.69 126.488C1037.38 130.374 1054.86 135.877 1068.14 143L1082.71 224.589H1069.11C1061.01 205.487 1051.14 189.46 1039.48 176.51C1027.83 163.235 1015.2 153.199 1001.6 146.4C988.006 139.601 973.922 136.201 959.353 136.201C950.611 136.201 942.679 137.496 935.556 140.086C928.434 142.677 922.768 146.4 918.559 151.256C914.674 155.789 912.731 160.969 912.731 166.797C912.731 176.186 916.94 183.956 925.358 190.108C934.099 195.936 947.05 201.439 964.209 206.62C970.037 208.562 974.732 210.181 978.293 211.476C982.178 212.447 987.035 213.743 992.862 215.361L1005.49 218.761C1023.3 223.941 1038.67 229.769 1051.63 236.244C1064.58 242.396 1075.26 250.651 1083.68 261.012C1092.1 271.049 1096.3 283.513 1096.3 298.407C1096.3 316.214 1089.99 331.107 1077.36 343.086C1065.06 354.741 1048.71 363.483 1028.31 369.311C1007.92 374.815 985.578 377.567 961.296 377.567Z" fill="white"/>
<path d="M1198.03 377.567C1180.87 377.567 1164.68 375.138 1149.46 370.282C1134.25 365.426 1121.78 357.655 1112.07 346.971C1102.68 336.287 1097.99 322.689 1097.99 306.177C1097.99 288.046 1104.3 270.239 1116.93 252.756C1129.55 234.949 1149.3 219.57 1176.17 206.62C1203.05 193.345 1236.56 184.766 1276.7 180.881C1275.41 169.873 1272.82 161.293 1268.93 155.141C1265.37 148.99 1260.35 144.457 1253.88 141.543C1247.4 138.306 1239.31 136.687 1229.6 136.687C1216.32 136.687 1202.88 139.925 1189.29 146.4C1175.69 152.551 1162.74 162.426 1150.44 176.024C1138.46 189.298 1128.1 206.458 1119.35 227.502H1106.24L1121.3 143.486C1123.56 142.838 1125.51 142.191 1127.12 141.543C1128.74 140.572 1130.85 139.763 1133.44 139.115C1148.98 133.287 1166.14 128.755 1184.92 125.517C1203.69 122.279 1221.5 120.661 1238.34 120.661C1263.59 120.661 1286.42 123.736 1306.81 129.888C1327.21 135.716 1343.56 145.59 1355.86 159.512C1368.49 173.434 1374.8 191.888 1374.8 214.876V317.832C1374.8 320.746 1374.96 323.336 1375.29 325.603C1375.61 335.639 1376.58 343.086 1378.2 347.942C1380.15 352.475 1382.9 354.741 1386.46 354.741C1390.02 354.741 1393.42 352.637 1396.66 348.428C1400.22 343.895 1403.94 337.258 1407.83 328.517L1420.94 336.772C1416.73 347.457 1411.87 355.713 1406.37 361.54C1401.19 367.044 1394.23 371.091 1385.49 373.681C1376.75 376.272 1365.09 377.567 1350.52 377.567C1334.33 377.567 1320.25 374.815 1308.27 369.311C1296.61 363.807 1288.36 355.713 1283.5 345.028C1276.06 355.389 1264.89 363.483 1249.99 369.311C1235.1 374.815 1217.78 377.567 1198.03 377.567ZM1231.05 355.713C1238.5 356.036 1245.95 353.446 1253.39 347.942C1260.84 342.438 1266.99 334.182 1271.85 323.174C1277.03 311.843 1279.62 298.083 1279.62 281.895V226.531C1279.62 212.933 1279.13 202.249 1278.16 194.479C1260.03 197.392 1244.97 204.191 1232.99 214.876C1221.34 225.236 1212.76 238.348 1207.26 254.213C1202.08 269.754 1199.49 286.589 1199.49 304.72C1199.49 322.203 1202.56 335.154 1208.71 343.572C1214.86 351.666 1222.31 355.713 1231.05 355.713Z" fill="white"/>
<path d="M1582.51 417.15C1596.28 454.945 1610.57 461.424 1632 461.424V466.823H1617.71C1579.45 466.823 1547.3 463.584 1534.55 428.488C1505.46 349.659 1541.56 245.048 1446.15 245.048C1424.11 245.048 1400.53 273.232 1389.82 301.74L1386.76 300.768L1419.51 198.074L1422.58 199.046C1416.15 225.286 1422.17 231.55 1446.66 231.55H1459.54C1497.3 231.55 1530.47 176.882 1530.47 151.505C1530.47 126.669 1513.63 100.752 1475.87 100.752L1338.05 98.7668V85.2686L1475.87 87.2539H1495.26C1554.96 87.2539 1584.55 114.79 1584.55 151.505C1584.55 177.962 1545.26 231.55 1495.26 239.109C1589.14 247.207 1553.94 337.78 1582.51 417.15Z" fill="#FF6D28"/>
</svg>
