<svg width="123" height="64" viewBox="0 0 123 64" fill="none" xmlns="http://www.w3.org/2000/svg">
<path d="M0 35.5382C1.71817 35.2394 3.24958 34.9406 3.24958 32.5127V13.3141C3.24958 10.9609 1.71817 10.5501 0 10.2886V9.84039H10.6078V12.6417C12.2886 10.4754 14.8285 9.28012 17.4805 9.28012C22.7844 9.28012 26.4075 13.7249 26.4075 19.253C26.4075 24.781 22.747 29.0764 17.4431 29.0764C14.7912 29.0764 12.2886 27.8438 10.6078 25.7521V32.5127C10.6078 34.9406 12.2139 35.2394 13.8574 35.5382V35.9864H0V35.5382ZM14.7538 26.6859C17.0323 26.6859 18.8251 23.8845 18.8251 19.253C18.8251 14.3599 17.0696 11.5586 14.7538 11.5586C12.8489 11.5586 10.6078 14.2852 10.6078 19.2156C10.6078 24.0713 12.8115 26.6859 14.7538 26.6859Z" fill="white"/>
<path d="M35.1486 29.0764C31.4881 29.0764 27.4542 27.6197 27.4542 23.5857C27.4542 19.6265 31.3761 14.8828 41.1995 13.9491C40.8634 11.5586 39.7802 10.5501 37.5764 10.5501C34.7004 10.5501 31.152 12.4923 29.0977 17.5348H28.0892L29.2471 11.073C31.7123 10.0271 35.2606 9.31747 38.2488 9.31747C43.59 9.31747 48.7445 10.9609 48.7445 16.5637V24.4822C48.7445 26.3871 49.006 27.3209 49.641 27.3209C50.2012 27.3209 50.7241 26.6112 51.2844 25.3039L52.2929 25.9389C51.3218 28.2547 50.2386 29.0764 46.8769 29.0764C44.4865 29.0764 42.4695 28.2547 41.7224 26.5738C40.5646 28.18 38.1367 29.0764 35.1486 29.0764ZM37.6885 27.3956C39.2573 27.4329 41.4236 25.7148 41.4236 21.7182V17.4601C41.4236 16.6384 41.3863 15.7046 41.3116 14.9949C37.0162 15.6672 35.2606 19.5144 35.2606 23.4737C35.2606 26.3871 36.4559 27.3956 37.6885 27.3956Z" fill="white"/>
<path d="M51.1327 27.8438C52.8508 27.6944 54.457 27.4703 54.457 25.0424V13.3141C54.457 10.9609 52.8508 10.6248 51.1327 10.4754V9.84039H61.8152V25.0424C61.8152 27.4703 63.4587 27.6944 65.1021 27.8438V28.5161H51.1327V27.8438ZM60.9561 3.56535C60.3585 5.24616 58.5283 6.03054 57.0716 5.58232C55.5402 5.20881 54.5317 3.82681 55.1293 2.14599C55.6522 0.502526 57.4824 -0.281853 59.0138 0.091661C60.4705 0.539879 61.5164 1.84718 60.9561 3.56535Z" fill="white"/>
<path d="M76.1754 29.0764C72.5896 29.0764 67.9954 28.18 65.9411 26.2003L64.9326 19.253H65.9784C68.2569 25.3039 72.4776 27.8438 75.9886 27.8438C78.4912 27.8438 80.0973 26.8727 80.0973 25.3786C80.0973 23.4363 77.2959 22.5772 73.8596 21.382C70.0124 20.1867 65.9784 18.9168 65.9784 15.1816C65.9411 11.1103 70.6474 9.31747 75.8019 9.31747C78.3791 9.31747 82.2263 9.91509 84.3927 11.0356L85.5132 17.3107H84.4674C82.5625 12.9032 79.3129 10.5127 76.026 10.5127C74.009 10.5127 72.4402 11.4465 72.4402 12.8659C72.4402 14.9575 75.391 15.6299 78.6032 16.601C82.4131 17.6095 86.5591 19.0288 86.5591 22.9881C86.5591 27.2835 81.554 29.0764 76.1754 29.0764Z" fill="white"/>
<path d="M95.1663 29.0764C91.5058 29.0764 87.4719 27.6197 87.4719 23.5857C87.4719 19.6265 91.3938 14.8828 101.217 13.9491C100.881 11.5586 99.7978 10.5501 97.5941 10.5501C94.718 10.5501 91.1696 12.4923 89.1153 17.5348H88.1068L89.2647 11.073C91.7299 10.0271 95.2783 9.31747 98.2664 9.31747C103.608 9.31747 108.762 10.9609 108.762 16.5637V24.4822C108.762 26.3871 109.024 27.3209 109.659 27.3209C110.219 27.3209 110.742 26.6112 111.302 25.3039L112.311 25.9389C111.339 28.2547 110.256 29.0764 106.895 29.0764C104.504 29.0764 102.487 28.2547 101.74 26.5738C100.582 28.18 98.1544 29.0764 95.1663 29.0764ZM97.7061 27.3956C99.2749 27.4329 101.441 25.7148 101.441 21.7182V17.4601C101.441 16.6384 101.404 15.7046 101.329 14.9949C97.0338 15.6672 95.2783 19.5144 95.2783 23.4737C95.2783 26.3871 96.4736 27.3956 97.7061 27.3956Z" fill="white"/>
<path d="M10.944 53.056C10.944 55.4839 12.1019 55.708 13.7453 55.8574V56.5297H0.336163V55.8574C2.05433 55.708 3.58574 55.4839 3.58574 53.056V41.3277C3.58574 38.9745 2.05433 38.6384 0.336163 38.489V37.854H10.944V40.1698C12.2513 38.3022 14.0815 37.2937 15.8744 37.2937C17.9287 37.2937 19.8336 38.2648 21.1783 39.5721L22.1121 46.2954H20.9168C18.8998 41.3277 17.4805 38.8625 15.2394 38.8625C12.4754 38.8625 10.944 42.6723 10.944 48.4991V53.056Z" fill="#FF6D28"/>
<path d="M32.1657 57.09C28.2065 57.09 24.3593 54.6621 24.3593 50.18V41.2903C24.3593 38.8625 23.1267 38.601 21.1844 38.489V37.8166L31.6802 37.854V49.7691C31.6802 53.6536 33.0995 54.8489 34.6683 54.8489C36.5732 54.8489 38.142 52.6078 38.142 48.4244V41.2903C38.142 38.8625 37.0588 38.6384 35.4153 38.489V37.8166L45.5002 37.854V53.056C45.5002 55.3718 46.9943 55.7453 48.7498 55.8574V56.4924H38.142V53.6536C37.0588 55.82 34.8177 57.09 32.1657 57.09Z" fill="#FF6D28"/>
<path d="M47.2948 63.5518C49.013 63.253 50.5444 62.9542 50.5444 60.5263V41.3277C50.5444 38.9745 49.013 38.5637 47.2948 38.3022V37.854H57.9026V40.6553C59.5834 38.489 62.1233 37.2937 64.7753 37.2937C70.0792 37.2937 73.7023 41.7385 73.7023 47.2665C73.7023 52.7946 70.0419 57.09 64.7379 57.09C62.086 57.09 59.5834 55.8574 57.9026 53.7657V60.5263C57.9026 62.9542 59.5087 63.253 61.1522 63.5518V64H47.2948V63.5518ZM62.0486 54.6995C64.3271 54.6995 66.1199 51.8981 66.1199 47.2665C66.1199 42.3735 64.3644 39.5721 62.0486 39.5721C60.1437 39.5721 57.9026 42.2988 57.9026 47.2292C57.9026 52.0849 60.1064 54.6995 62.0486 54.6995Z" fill="#FF6D28"/>
<path d="M82.4434 57.09C78.783 57.09 74.749 55.6333 74.749 51.5993C74.749 47.6401 78.6709 42.8964 88.4943 41.9626C88.1582 39.5721 87.075 38.5637 84.8713 38.5637C81.9952 38.5637 78.4468 40.5059 76.3925 45.5484H75.384L76.5419 39.0866C79.0071 38.0407 82.5555 37.3311 85.5436 37.3311C90.8848 37.3311 96.0393 38.9745 96.0393 44.5772V52.4957C96.0393 54.4007 96.3008 55.3345 96.9358 55.3345C97.496 55.3345 98.019 54.6248 98.5792 53.3175L99.5877 53.9525C98.6166 56.2682 97.5334 57.09 94.1718 57.09C91.7813 57.09 89.7643 56.2682 89.0173 54.5874C87.8594 56.1935 85.4315 57.09 82.4434 57.09ZM84.9833 55.4092C86.5521 55.4465 88.7185 53.7283 88.7185 49.7317V45.4737C88.7185 44.6519 88.6811 43.7182 88.6064 43.0085C84.311 43.6808 82.5555 47.528 82.5555 51.4873C82.5555 54.4007 83.7507 55.4092 84.9833 55.4092Z" fill="#FF6D28"/>
<path d="M104.927 63.3277C106.794 63.1783 108.176 63.0662 109.185 60.8625L110.828 56.6791L102.461 41.0662C101.229 38.8251 99.5854 38.6757 97.6805 38.5263V37.854H112.434V38.5263C110.641 38.6757 109.745 38.8998 110.866 40.8421L114.526 47.7895L117.439 40.9915C118.411 38.8998 117.477 38.6757 115.609 38.5263V37.854H123.005V38.5263C121.175 38.6384 119.83 38.8625 118.859 40.9541L110.567 60.8251C109.596 62.9542 110.529 63.2156 112.397 63.3277V64H104.927V63.3277Z" fill="#FF6D28"/>
</svg>
