<svg width="8" height="8" viewBox="0 0 8 8" fill="none" xmlns="http://www.w3.org/2000/svg">
<g clip-path="url(#clip0_320_52)">
<path d="M1.66675 4.33335C1.66675 4.15654 1.73699 3.98697 1.86201 3.86195C1.98703 3.73693 2.1566 3.66669 2.33341 3.66669H5.66675C5.84356 3.66669 6.01313 3.73693 6.13815 3.86195C6.26318 3.98697 6.33341 4.15654 6.33341 4.33335V6.33335C6.33341 6.51016 6.26318 6.67973 6.13815 6.80476C6.01313 6.92978 5.84356 7.00002 5.66675 7.00002H2.33341C2.1566 7.00002 1.98703 6.92978 1.86201 6.80476C1.73699 6.67973 1.66675 6.51016 1.66675 6.33335V4.33335Z" stroke="#FF6D28" stroke-width="0.4" stroke-linecap="round" stroke-linejoin="round"/>
<path d="M3.66675 5.33333C3.66675 5.42174 3.70187 5.50652 3.76438 5.56904C3.82689 5.63155 3.91168 5.66667 4.00008 5.66667C4.08849 5.66667 4.17327 5.63155 4.23578 5.56904C4.2983 5.50652 4.33341 5.42174 4.33341 5.33333C4.33341 5.24493 4.2983 5.16014 4.23578 5.09763C4.17327 5.03512 4.08849 5 4.00008 5C3.91168 5 3.82689 5.03512 3.76438 5.09763C3.70187 5.16014 3.66675 5.24493 3.66675 5.33333Z" stroke="#FF6D28" stroke-width="0.4" stroke-linecap="round" stroke-linejoin="round"/>
<path d="M2.66675 3.66667V2.33333C2.66675 1.97971 2.80722 1.64057 3.05727 1.39052C3.30732 1.14048 3.64646 1 4.00008 1C4.3537 1 4.69284 1.14048 4.94289 1.39052C5.19294 1.64057 5.33341 1.97971 5.33341 2.33333V3.66667" stroke="#FF6D28" stroke-width="0.4" stroke-linecap="round" stroke-linejoin="round"/>
</g>
<defs>
<clipPath id="clip0_320_52">
<rect width="8" height="8" fill="white"/>
</clipPath>
</defs>
</svg>
