<svg width="16" height="16" viewBox="0 0 16 16" fill="none" xmlns="http://www.w3.org/2000/svg">
<g clip-path="url(#clip0_206_313)">
<path d="M6.00033 2.6665H3.33366C3.15685 2.6665 2.98728 2.73674 2.86225 2.86177C2.73723 2.98679 2.66699 3.15636 2.66699 3.33317V7.33317C2.66699 7.50998 2.73723 7.67955 2.86225 7.80457C2.98728 7.9296 3.15685 7.99984 3.33366 7.99984H6.00033C6.17714 7.99984 6.34671 7.9296 6.47173 7.80457C6.59675 7.67955 6.66699 7.50998 6.66699 7.33317V3.33317C6.66699 3.15636 6.59675 2.98679 6.47173 2.86177C6.34671 2.73674 6.17714 2.6665 6.00033 2.6665Z" stroke="#FF6D28" stroke-width="0.8" stroke-linecap="round" stroke-linejoin="round"/>
<path d="M3.33366 10.6665H6.00033C6.17714 10.6665 6.34671 10.7367 6.47173 10.8618C6.59675 10.9868 6.66699 11.1564 6.66699 11.3332V12.6665C6.66699 12.8433 6.59675 13.0129 6.47173 13.1379C6.34671 13.2629 6.17714 13.3332 6.00033 13.3332H3.33366C3.15685 13.3332 2.98728 13.2629 2.86225 13.1379C2.73723 13.0129 2.66699 12.8433 2.66699 12.6665V11.3332C2.66699 11.1564 2.73723 10.9868 2.86225 10.8618C2.98728 10.7367 3.15685 10.6665 3.33366 10.6665Z" stroke="#FF6D28" stroke-width="0.8" stroke-linecap="round" stroke-linejoin="round"/>
<path d="M12.6663 8H9.99967C9.82286 8 9.65329 8.07024 9.52827 8.19526C9.40325 8.32029 9.33301 8.48986 9.33301 8.66667V12.6667C9.33301 12.8435 9.40325 13.013 9.52827 13.1381C9.65329 13.2631 9.82286 13.3333 9.99967 13.3333H12.6663C12.8432 13.3333 13.0127 13.2631 13.1377 13.1381C13.2628 13.013 13.333 12.8435 13.333 12.6667V8.66667C13.333 8.48986 13.2628 8.32029 13.1377 8.19526C13.0127 8.07024 12.8432 8 12.6663 8Z" stroke="#FF6D28" stroke-width="0.8" stroke-linecap="round" stroke-linejoin="round"/>
<path d="M12.6663 2.6665H9.99967C9.82286 2.6665 9.65329 2.73674 9.52827 2.86177C9.40325 2.98679 9.33301 3.15636 9.33301 3.33317V4.6665C9.33301 4.84331 9.40325 5.01288 9.52827 5.13791C9.65329 5.26293 9.82286 5.33317 9.99967 5.33317H12.6663C12.8432 5.33317 13.0127 5.26293 13.1377 5.13791C13.2628 5.01288 13.333 4.84331 13.333 4.6665V3.33317C13.333 3.15636 13.2628 2.98679 13.1377 2.86177C13.0127 2.73674 12.8432 2.6665 12.6663 2.6665Z" stroke="#FF6D28" stroke-width="0.8" stroke-linecap="round" stroke-linejoin="round"/>
</g>
<defs>
<clipPath id="clip0_206_313">
<rect width="16" height="16" fill="white"/>
</clipPath>
</defs>
</svg>
